<?xml version="1.0" standalone="no"?>
<!DOCTYPE svg PUBLIC "-//W3C//DTD SVG 20010904//EN"
 "http://www.w3.org/TR/2001/REC-SVG-20010904/DTD/svg10.dtd">
<svg version="1.0" xmlns="http://www.w3.org/2000/svg"
 width="986.000000pt" height="986.000000pt" viewBox="0 0 986.000000 986.000000"
 preserveAspectRatio="xMidYMid meet">
<metadata>
Created by potrace 1.11, written by Peter Selinger 2001-2013
</metadata>
<g transform="translate(0.000000,986.000000) scale(0.100000,-0.100000)"
fill="#000000" stroke="none">
<path d="M510 9233 c-53 -9 -157 -47 -207 -75 -119 -66 -220 -190 -271 -330
l-27 -73 -3 -4068 -2 -4067 1128 0 1128 0 1 3027 c0 3305 -4 3093 54 3213 83
173 225 286 417 331 76 19 105 20 227 15 77 -4 160 -9 185 -12 486 -59 831
-326 942 -729 38 -137 35 -379 -7 -528 -22 -79 -90 -215 -134 -270 -70 -88
-186 -187 -271 -233 -19 -10 -42 -24 -50 -30 -48 -36 -302 -116 -414 -130 -28
-4 -58 -10 -66 -15 -14 -7 -16 -117 -14 -1001 1 -546 2 -997 3 -1001 1 -8 423
-2 506 7 22 3 67 7 100 11 33 3 78 8 100 10 22 3 60 7 85 10 236 23 583 105
837 195 450 162 792 386 1102 726 l47 51 80 -48 c43 -26 129 -76 189 -110 450
-254 914 -553 1040 -671 98 -91 153 -198 161 -309 12 -162 -36 -280 -165 -409
-97 -96 -187 -147 -318 -180 -121 -31 -158 -35 -348 -34 -159 1 -193 4 -290
28 -141 34 -222 65 -370 139 -154 78 -241 136 -394 261 -113 92 -364 386 -416
486 -9 16 -19 30 -23 30 -4 0 -23 -15 -42 -33 -29 -27 -260 -228 -364 -317
-16 -14 -86 -74 -155 -135 -69 -60 -134 -116 -144 -125 -10 -8 -29 -24 -41
-35 -12 -11 -49 -43 -82 -71 -80 -70 -144 -125 -174 -151 -14 -12 -36 -32 -50
-43 -14 -12 -49 -43 -79 -68 -29 -26 -63 -55 -75 -65 -23 -20 -85 -74 -214
-187 -48 -42 -79 -77 -75 -83 51 -91 250 -343 358 -456 254 -266 453 -426 738
-595 270 -159 776 -344 1072 -389 17 -3 57 -10 90 -15 33 -6 78 -14 100 -17
22 -3 51 -7 65 -10 14 -2 54 -6 90 -10 36 -3 101 -9 145 -14 82 -8 585 -6 665
3 25 3 74 8 110 12 36 3 72 7 80 9 8 1 42 6 74 10 253 29 627 132 886 245 262
114 533 284 709 445 85 78 108 101 185 185 156 169 255 315 367 535 115 229
186 430 234 669 33 165 31 152 50 311 18 149 24 435 11 590 -19 247 -113 550
-222 720 -110 172 -235 334 -329 428 -75 75 -489 397 -510 397 -2 0 -50 31
-107 68 -155 103 -252 163 -363 224 -55 30 -129 72 -165 93 -36 20 -78 45 -95
55 -16 9 -106 63 -198 118 -93 56 -171 102 -173 102 -2 0 -28 15 -57 33 -28
18 -61 38 -72 44 -122 70 -325 208 -394 268 -154 134 -220 213 -276 331 -114
241 -84 470 84 634 57 55 167 125 215 137 6 1 36 10 66 19 79 24 411 23 450
-1 4 -2 22 -7 41 -10 19 -3 72 -19 119 -36 47 -16 90 -31 95 -33 23 -6 124
-62 180 -99 125 -84 259 -211 399 -377 49 -58 92 -106 96 -108 3 -1 53 37 111
86 121 102 525 440 553 462 10 8 23 20 30 25 6 6 94 80 196 165 102 85 187
157 190 160 3 3 57 48 120 100 63 52 117 97 120 100 3 3 42 36 87 73 l82 68
-27 42 c-141 218 -327 425 -543 602 -113 94 -327 230 -481 306 -419 209 -877
330 -1348 356 -199 10 -495 5 -590 -11 -14 -3 -52 -7 -85 -11 -140 -13 -431
-80 -600 -137 -240 -81 -503 -202 -668 -308 l-96 -61 -91 61 c-251 169 -656
338 -970 405 -155 33 -215 44 -270 50 -25 3 -52 8 -60 10 -21 6 -81 13 -170
21 -41 3 -95 9 -120 12 -52 6 -3193 12 -3230 5z"/>
</g>
</svg>
